<svg width="54" height="54" viewBox="0 0 54 54" fill="none" xmlns="http://www.w3.org/2000/svg">
<path d="M20.0254 23.7305C20.9569 23.7305 21.7129 22.9745 21.7129 22.043V15.4617C21.7129 12.5196 24.1066 10.125 27.0488 10.125C29.9909 10.125 32.3855 12.5196 32.3855 15.4617V22.043C32.3855 22.9745 33.1406 23.7305 34.073 23.7305C35.0045 23.7305 35.7605 22.9745 35.7605 22.043V15.4617C35.7613 10.6583 31.8531 6.75 27.0488 6.75C22.2461 6.75 18.3379 10.6583 18.3379 15.4617V22.043C18.3379 22.9745 19.0939 23.7305 20.0254 23.7305Z" fill="black"/>
<path d="M46.4068 19.9387H37.4496V22.043C37.4496 23.9043 35.9359 25.418 34.0746 25.418C32.2132 25.418 30.6996 23.9043 30.6996 22.043V19.9387H23.402V22.043C23.402 23.9043 21.8883 25.418 20.027 25.418C18.1656 25.418 16.652 23.9043 16.652 22.043V19.9387H7.5943C7.12855 19.9387 6.84084 20.3058 6.95137 20.758L12.8559 44.8023C13.212 46.154 14.6346 47.2501 16.0318 47.2501H37.9693C39.3682 47.2501 40.7891 46.154 41.1469 44.8023L47.0497 20.758C47.1603 20.3049 46.8734 19.9387 46.4068 19.9387Z" fill="black"/>
</svg>
