<svg width="20" height="20" viewBox="0 0 20 20" fill="none" xmlns="http://www.w3.org/2000/svg">
<path d="M10.2272 6.8184C10.8548 6.8184 11.3636 6.30963 11.3636 5.68203C11.3636 5.05443 10.8548 4.54565 10.2272 4.54565C9.59959 4.54565 9.09082 5.05443 9.09082 5.68203C9.09082 6.30963 9.59959 6.8184 10.2272 6.8184Z" fill="black"/>
<path d="M12.7275 14.9999H11.3639V7.72717H7.72754V8.63626H9.09117V14.9999H7.72754V15.909H12.7275V14.9999Z" fill="black"/>
<path d="M20 10C20 4.47725 15.5227 0 10 0C4.47725 0 0 4.47725 0 10C0 15.5227 4.47725 20 10 20C15.5227 20 20 15.5227 20 10ZM0.909085 10C0.909085 4.97909 4.97909 0.909085 10 0.909085C15.0209 0.909085 19.0909 4.97909 19.0909 10C19.0909 15.0209 15.0209 19.0909 10 19.0909C4.97909 19.0909 0.909085 15.0209 0.909085 10Z" fill="black"/>
</svg>
