<svg width="53" height="54" viewBox="0 0 53 54" fill="none" xmlns="http://www.w3.org/2000/svg">
<path d="M0.138672 53.5674C0.866406 51.3842 1.55195 49.3381 2.2375 47.292C2.92305 45.267 3.53477 43.2104 4.31523 41.217C4.71602 40.2045 4.58945 39.4452 4.0832 38.4959C1.31992 33.3702 0.497265 27.8752 1.45703 22.1588C2.26914 17.3178 4.32578 13.0358 7.64805 9.39712C13.1219 3.41704 19.9562 0.548289 28.0352 0.885789C33.952 1.12837 39.1832 3.29048 43.6445 7.20337C47.8 10.842 50.5105 15.3666 51.7656 20.7456C52.7781 25.0803 52.6621 29.394 51.4176 33.6655C49.8355 39.076 46.8086 43.5373 42.3051 46.9334C36.0508 51.6584 29.0371 53.1245 21.3906 51.6374C19.0914 51.1944 16.8977 50.3717 14.8305 49.2538C14.493 49.0745 14.2082 49.0323 13.8391 49.1588C9.91562 50.4245 5.98164 51.6795 2.0582 52.9346C1.46758 53.1245 0.866406 53.3249 0.138672 53.5674ZM6.81484 46.9545C7.02578 46.9018 7.1207 46.8807 7.21562 46.8491C9.67305 46.0686 12.1305 45.2776 14.5984 44.5182C14.8305 44.4444 15.1469 44.5077 15.3684 44.6131C16.4336 45.1405 17.4566 45.7733 18.5535 46.2374C23.0676 48.1463 27.7188 48.4522 32.4227 47.1444C38.0336 45.5729 42.3367 42.2295 45.2793 37.1776C47.8 32.8534 48.6648 28.1811 47.8844 23.2663C46.893 17.012 43.6867 12.0971 38.3816 8.6061C33.7832 5.5897 28.7207 4.56665 23.3207 5.42095C18.6695 6.15923 14.6934 8.27915 11.4133 11.6752C8.59727 14.5862 6.70938 18.0245 5.88672 21.9795C4.71602 27.6432 5.58086 33.001 8.72383 37.8842C9.35664 38.8651 9.33555 39.6139 8.95586 40.6159C8.18594 42.6725 7.54258 44.7713 6.81484 46.9545Z" fill="black"/>
<path d="M40.058 33.9399C40.0264 35.9755 39.0666 37.5258 37.126 38.4962C35.217 39.4454 33.2764 39.6879 31.283 38.9075C29.49 38.2008 27.676 37.5153 25.9463 36.661C23.6682 35.5325 21.8014 33.845 20.0928 31.9782C18.2049 29.911 16.6018 27.6118 15.2834 25.1544C14.3447 23.4141 13.7752 21.5684 13.9756 19.5434C14.1865 17.3919 15.1885 15.6727 16.876 14.3755C17.2135 14.1223 17.7197 14.0063 18.1522 13.9641C18.7111 13.9219 19.2701 14.0063 19.8291 14.0485C20.2932 14.0907 20.5463 14.4177 20.7045 14.7973C21.1158 15.8098 21.485 16.8223 21.8752 17.8454C22.1389 18.5309 22.3393 19.2481 22.6557 19.9126C23.0459 20.7352 22.8033 21.4208 22.2971 22.0536C21.8647 22.5915 21.4111 23.1083 20.9154 23.5723C20.5041 23.9626 20.4303 24.3633 20.7045 24.838C21.9174 27.0001 23.394 28.9407 25.3451 30.5122C26.6318 31.5458 28.0557 32.3157 29.5322 33.0329C29.9647 33.2438 30.3865 33.2122 30.724 32.8219C31.4518 31.9887 32.19 31.1661 32.9072 30.3223C33.3713 29.7844 33.6033 29.679 34.2256 29.9954C36.0291 30.9024 37.8115 31.8411 39.6045 32.7797C40.0264 33.0118 40.1318 33.3915 40.058 33.9399Z" fill="black"/>
</svg>
