<svg width="74" height="44" viewBox="0 0 74 44" fill="none" xmlns="http://www.w3.org/2000/svg">
<path d="M71.4174 41.9205C68.8904 43.5035 58.6104 43.9745 56.1224 42.1665C54.7574 41.1755 53.5094 39.9345 52.3234 38.7545C51.4954 37.9285 50.5534 37.5275 49.8414 36.6315C49.2614 35.8975 48.8624 35.0325 48.2494 34.3105C47.2164 33.0955 45.6244 32.0625 44.3644 33.5465C42.4694 35.7775 44.6634 40.1635 42.1354 41.8315C41.2874 42.3915 40.4324 42.5535 39.3734 42.4735L37.0274 42.5805C35.6484 42.6075 33.4654 42.6195 31.8984 42.3365C30.1484 42.0215 28.7054 41.0655 27.1254 40.3635C24.1234 39.0325 21.2624 37.2185 19.0864 34.7055C13.1644 27.8625 5.20945 18.4505 2.11945 9.8465C1.48245 8.0785 -0.194553 4.5795 1.39645 3.0625C3.56045 1.4905 14.1854 1.0455 15.8414 3.4785C16.5154 4.4655 16.9394 5.9145 17.4154 7.0335C18.0074 8.4295 18.3294 9.7465 19.2554 10.9825C20.0754 12.0795 20.6814 13.1815 21.3164 14.3845C22.0294 15.7335 22.7014 17.0275 23.5684 18.2705C24.1564 19.1155 25.7114 20.7945 26.6934 20.9205C29.0914 21.2275 28.9414 15.3995 28.7634 13.9755C28.5934 12.6045 28.5484 11.1505 28.5934 9.7595C28.6324 8.5735 28.7394 6.9025 28.0364 5.9335C26.8914 4.3535 24.3414 5.5365 24.1414 3.4135C24.5634 2.8105 24.4734 2.2755 27.2874 1.3495C29.5024 0.6205 30.9334 0.6435 32.3944 0.7605C35.3744 0.999499 38.5334 0.1925 41.4084 1.1585C44.1544 2.0835 43.7304 5.9865 43.6384 8.3265C43.5154 11.5215 43.6464 14.6385 43.6384 17.8795C43.6344 19.3565 43.5764 20.7915 45.3744 20.6725C47.0624 20.5595 47.2334 19.1405 48.0384 17.9685C49.1594 16.3355 50.1865 14.6805 51.3274 13.0525C52.8644 10.8535 53.3274 8.3825 54.7744 6.1295C55.2924 5.3225 55.7374 3.5615 56.5345 2.9245C57.1385 2.4435 58.2844 2.6495 59.0144 2.6495H60.7504C62.0804 2.6655 63.4364 2.6845 64.8014 2.7325C66.7684 2.8005 68.9714 2.3735 70.9224 2.6485C79.3384 3.8365 60.3444 21.8395 61.3324 25.0515C62.0164 27.2695 66.3484 29.7545 67.9124 31.5725C69.9974 33.9905 76.3884 38.8095 71.4174 41.9205Z" fill="black"/>
</svg>
