<svg width="54" height="54" viewBox="0 0 54 54" fill="none" xmlns="http://www.w3.org/2000/svg">
<path d="M53.2629 27.1056C53.2629 30.7759 53.1891 34.4567 53.284 38.1271C53.4422 44.6239 49.3605 49.6442 44.1609 51.8802C42.0727 52.7767 39.8789 53.2513 37.6113 53.2513C30.5133 53.2618 23.4047 53.3567 16.3066 53.2196C10.9594 53.1142 6.56133 50.8782 3.40781 46.4696C1.75195 44.1493 0.960938 41.5126 0.960938 38.6544C0.960938 31.0923 0.960938 23.5407 0.960938 15.9786C0.960938 9.8087 3.9668 5.49503 9.30352 2.68956C11.6238 1.47667 14.1445 0.959869 16.7707 0.949322C23.6578 0.949322 30.5555 0.907135 37.4426 0.970416C42.7898 1.0126 47.2512 3.0587 50.5418 7.36182C52.377 9.76651 53.2629 12.5298 53.2629 15.5673C53.2629 19.4064 53.2629 23.256 53.2629 27.1056ZM4.85273 27.1056C4.85273 30.9763 4.85273 34.8364 4.85273 38.7071C4.85273 40.4368 5.25352 42.061 6.15 43.5271C8.50195 47.3767 12.0563 49.254 16.4648 49.3278C23.5418 49.4333 30.6293 49.37 37.7168 49.3489C39.457 49.3489 41.1445 48.9903 42.716 48.2415C46.9981 46.1954 49.3922 42.9364 49.3711 38.0427C49.3289 30.5544 49.3605 23.0661 49.3605 15.5778C49.3605 13.4579 48.7594 11.5173 47.5043 9.8087C45.0785 6.52862 41.7246 4.91495 37.7168 4.87276C30.6504 4.78838 23.584 4.84112 16.5176 4.85167C15.0094 4.85167 13.5539 5.15753 12.1406 5.68487C8.25938 7.12979 4.65234 10.7896 4.82109 16.179C4.94766 19.8282 4.85273 23.4669 4.85273 27.1056Z" fill="black"/>
<path d="M27.1707 38.2849C20.368 38.2849 14.8836 32.8638 14.8731 26.1138C14.8625 19.4693 20.3891 14.0271 27.1496 14.0271C33.9313 14.0166 39.4367 19.4482 39.4473 26.1455C39.4473 32.8322 33.9524 38.2744 27.1707 38.2849ZM27.1707 34.3826C31.8008 34.3826 35.5555 30.6806 35.5449 26.1244C35.5344 21.6103 31.7797 17.9189 27.1707 17.9189C22.5406 17.9189 18.7649 21.5998 18.7649 26.1455C18.7754 30.7017 22.5406 34.3931 27.1707 34.3826Z" fill="black"/>
<path d="M40.8704 10.3359C42.2942 10.3359 43.4544 11.5488 43.4544 13.0359C43.4438 14.523 42.2731 15.7254 40.8493 15.7148C39.4466 15.7043 38.2969 14.502 38.2969 13.0465C38.2864 11.5594 39.4466 10.3359 40.8704 10.3359Z" fill="black"/>
</svg>
