<svg width="37" height="37" viewBox="0 0 37 37" fill="none" xmlns="http://www.w3.org/2000/svg">
<g clip-path="url(#clip0)">
<path d="M36.8335 29.4922L36.6494 28.9373C36.2132 27.6408 34.7835 26.2887 33.4701 25.9325L28.6091 24.6046C27.2909 24.2459 25.4105 24.7282 24.446 25.6926L22.6867 27.4519C16.2931 25.7242 11.2795 20.7105 9.55415 14.3181L11.3135 12.5587C12.278 11.5942 12.7602 9.7163 12.4015 8.39807L11.076 3.53467C10.7174 2.21884 9.36277 0.789189 8.06882 0.357819L7.51392 0.171251C6.21748 -0.260119 4.36855 0.176136 3.40416 1.14054L0.772508 3.77458C0.302367 4.24224 0.00188832 5.57986 0.00188832 5.58474C-0.090155 13.94 3.18603 21.9898 9.09618 27.9001C14.9918 33.7957 23.0115 37.0671 31.3425 36.9968C31.3861 36.9968 32.7625 36.7012 33.2326 36.2334L35.8643 33.6018C36.8287 32.6375 37.2648 30.7886 36.8335 29.4922Z" fill="black"/>
</g>
<defs>
<clipPath id="clip0">
<rect width="37" height="37" fill="white"/>
</clipPath>
</defs>
</svg>
