<svg width="9" height="8" viewBox="0 0 9 8" fill="none" xmlns="http://www.w3.org/2000/svg">
<path d="M7.75 3.62598H4.875V0.750977C4.875 0.65152 4.83549 0.556138 4.76517 0.485812C4.69484 0.415486 4.59946 0.375977 4.5 0.375977C4.40054 0.375977 4.30516 0.415486 4.23484 0.485812C4.16451 0.556138 4.125 0.65152 4.125 0.750977V3.62598H1.25C1.15054 3.62598 1.05516 3.66549 0.984835 3.73581C0.914509 3.80614 0.875 3.90152 0.875 4.00098C0.875 4.10043 0.914509 4.19582 0.984835 4.26614C1.05516 4.33647 1.15054 4.37598 1.25 4.37598H4.125V7.25098C4.125 7.35043 4.16451 7.44582 4.23484 7.51614C4.30516 7.58647 4.40054 7.62598 4.5 7.62598C4.59946 7.62598 4.69484 7.58647 4.76517 7.51614C4.83549 7.44582 4.875 7.35043 4.875 7.25098V4.37598H7.75C7.84946 4.37598 7.94484 4.33647 8.01517 4.26614C8.08549 4.19582 8.125 4.10043 8.125 4.00098C8.125 3.90152 8.08549 3.80614 8.01517 3.73581C7.94484 3.66549 7.84946 3.62598 7.75 3.62598Z" fill="black"/>
</svg>
