<svg width="9" height="11" viewBox="0 0 9 11" fill="none" xmlns="http://www.w3.org/2000/svg">
<path d="M5.61719 6.6291C6.49406 6.6291 7.33502 6.28077 7.95506 5.66072C8.5751 5.04068 8.92344 4.19972 8.92344 3.32285C8.92344 2.44598 8.5751 1.60502 7.95506 0.98498C7.33502 0.364938 6.49406 0.0166016 5.61719 0.0166016H0.75V1.0166H1.99822V5.6291H0.75V6.6291H1.99822V8.00098H0.75V9.00098H1.99822V10.751H2.99822V9.00098H6V8.00098H2.99822V6.6291H5.61719ZM2.99822 1.0166H5.61719C5.92005 1.0166 6.21994 1.07625 6.49975 1.19215C6.77956 1.30805 7.0338 1.47793 7.24795 1.69209C7.46211 1.90624 7.63198 2.16048 7.74788 2.44029C7.86378 2.7201 7.92344 3.01999 7.92344 3.32285C7.92344 3.62571 7.86378 3.92561 7.74788 4.20542C7.63198 4.48522 7.46211 4.73946 7.24795 4.95362C7.0338 5.16777 6.77956 5.33765 6.49975 5.45355C6.21994 5.56945 5.92005 5.6291 5.61719 5.6291H2.99822V1.0166Z" fill="black"/>
</svg>
