<svg width="43" height="79" viewBox="0 0 43 79" fill="none" xmlns="http://www.w3.org/2000/svg">
<path d="M3.47203 78.8904C2.89257 78.8903 2.32615 78.7183 1.84442 78.3963C1.36269 78.0742 0.987289 77.6165 0.76568 77.0811C0.544072 76.5457 0.486216 75.9566 0.599431 75.3883C0.712646 74.82 0.991844 74.2981 1.40172 73.8885L35.4427 39.8474L1.40172 5.80641C0.868052 5.25386 0.572756 4.51382 0.579431 3.74566C0.586106 2.97751 0.894219 2.2427 1.43741 1.69952C1.98059 1.15633 2.7154 0.848216 3.48355 0.841541C4.2517 0.834866 4.99175 1.13016 5.5443 1.66383L41.6576 37.7771C42.2068 38.3265 42.5153 39.0716 42.5153 39.8484C42.5153 40.6252 42.2068 41.3703 41.6576 41.9197L5.5443 78.033C5.27212 78.305 4.94902 78.5207 4.59345 78.6678C4.23789 78.8149 3.85683 78.8906 3.47203 78.8904Z" fill="black" fill-opacity="0.86"/>
</svg>
