<svg width="61" height="62" viewBox="0 0 61 62" fill="none" xmlns="http://www.w3.org/2000/svg">
<g filter="url(#filter0_d)">
<path d="M4.13867 53.5674C4.86641 51.3842 5.55195 49.3381 6.2375 47.292C6.92305 45.267 7.53477 43.2103 8.31523 41.217C8.71602 40.2045 8.58945 39.4451 8.0832 38.4959C5.31992 33.3701 4.49727 27.8752 5.45703 22.1588C6.26914 17.3178 8.32578 13.0357 11.648 9.39706C17.1219 3.41698 23.9562 0.548228 32.0352 0.885728C37.952 1.12831 43.1832 3.29042 47.6445 7.20331C51.8 10.842 54.5105 15.3666 55.7656 20.7455C56.7781 25.0803 56.6621 29.3939 55.4176 33.6654C53.8355 39.076 50.8086 43.5373 46.3051 46.9334C40.0508 51.6584 33.0371 53.1244 25.3906 51.6373C23.0914 51.1943 20.8977 50.3717 18.8305 49.2537C18.493 49.0744 18.2082 49.0322 17.8391 49.1588C13.9156 50.4244 9.98164 51.6795 6.0582 52.9346C5.46758 53.1244 4.86641 53.3248 4.13867 53.5674ZM10.8148 46.9545C11.0258 46.9017 11.1207 46.8806 11.2156 46.849C13.673 46.0685 16.1305 45.2775 18.5984 44.5182C18.8305 44.4443 19.1469 44.5076 19.3684 44.6131C20.4336 45.1404 21.4566 45.7732 22.5535 46.2373C27.0676 48.1463 31.7188 48.4521 36.4227 47.1443C42.0336 45.5728 46.3367 42.2295 49.2793 37.1775C51.8 32.8533 52.6648 28.181 51.8844 23.2662C50.893 17.0119 47.6867 12.0971 42.3816 8.60604C37.7832 5.58963 32.7207 4.56659 27.3207 5.42089C22.6695 6.15917 18.6934 8.27909 15.4133 11.6752C12.5973 14.5861 10.7094 18.0244 9.88672 21.9795C8.71602 27.6432 9.58086 33.001 12.7238 37.8842C13.3566 38.865 13.3355 39.6139 12.9559 40.6158C12.1859 42.6724 11.5426 44.7713 10.8148 46.9545Z" fill="#81A459"/>
<path d="M44.058 33.9398C44.0264 35.9753 43.0666 37.5257 41.126 38.496C39.217 39.4452 37.2764 39.6878 35.283 38.9074C33.49 38.2007 31.676 37.5152 29.9463 36.6609C27.6682 35.5324 25.8014 33.8449 24.0928 31.9781C22.2049 29.9109 20.6018 27.6117 19.2834 25.1542C18.3447 23.414 17.7752 21.5683 17.9756 19.5433C18.1865 17.3917 19.1885 15.6726 20.876 14.3753C21.2135 14.1222 21.7197 14.0062 22.1522 13.964C22.7111 13.9218 23.2701 14.0062 23.8291 14.0484C24.2932 14.0906 24.5463 14.4175 24.7045 14.7972C25.1158 15.8097 25.485 16.8222 25.8752 17.8453C26.1389 18.5308 26.3393 19.248 26.6557 19.9124C27.0459 20.7351 26.8033 21.4207 26.2971 22.0535C25.8647 22.5914 25.4111 23.1081 24.9154 23.5722C24.5041 23.9624 24.4303 24.3632 24.7045 24.8378C25.9174 26.9999 27.394 28.9406 29.3451 30.5121C30.6318 31.5456 32.0557 32.3156 33.5322 33.0328C33.9647 33.2437 34.3865 33.2121 34.724 32.8218C35.4518 31.9886 36.19 31.166 36.9072 30.3222C37.3713 29.7843 37.6033 29.6788 38.2256 29.9953C40.0291 30.9023 41.8115 31.841 43.6045 32.7796C44.0264 33.0117 44.1318 33.3913 44.058 33.9398Z" fill="#81A459"/>
</g>
<defs>
<filter id="filter0_d" x="-1" y="0" width="62" height="62" filterUnits="userSpaceOnUse" color-interpolation-filters="sRGB">
<feFlood flood-opacity="0" result="BackgroundImageFix"/>
<feColorMatrix in="SourceAlpha" type="matrix" values="0 0 0 0 0 0 0 0 0 0 0 0 0 0 0 0 0 0 127 0"/>
<feOffset dy="4"/>
<feGaussianBlur stdDeviation="2"/>
<feColorMatrix type="matrix" values="0 0 0 0 0 0 0 0 0 0 0 0 0 0 0 0 0 0 0.25 0"/>
<feBlend mode="normal" in2="BackgroundImageFix" result="effect1_dropShadow"/>
<feBlend mode="normal" in="SourceGraphic" in2="effect1_dropShadow" result="shape"/>
</filter>
</defs>
</svg>
